<?xml version="1.0" encoding="utf-8"?><!-- Uploaded to: SVG Repo, www.svgrepo.com, Generator: SVG Repo Mixer Tools -->
<svg width="800px" height="800px" viewBox="0 0 24 24" fill="none" xmlns="http://www.w3.org/2000/svg">
<path d="M13.4805 6.8124C12.5144 5.91331 11.4192 5.15053 10.2236 4.55273L9.77637 5.44716C10.8752 5.99657 11.8826 6.69613 12.7729 7.52L4.14645 16.1464C3.95118 16.3417 3.95118 16.6583 4.14645 16.8536C4.34171 17.0488 4.65829 17.0488 4.85355 16.8536L13.48 8.22711C14.3038 9.11734 15.0034 10.1248 15.5528 11.2236L16.4472 10.7763C15.8494 9.58079 15.0867 8.48562 14.1876 7.51951L14.3536 7.35355C14.5488 7.15829 14.5488 6.84171 14.3536 6.64645C14.1583 6.45118 13.8417 6.45118 13.6464 6.64645L13.4805 6.8124Z" fill="#47495F"/>
<path fill-rule="evenodd" clip-rule="evenodd" d="M16 13.5C14.6193 13.5 13.5 14.6193 13.5 16C13.5 17.3807 14.6193 18.5 16 18.5C17.3807 18.5 18.5 17.3807 18.5 16C18.5 14.6193 17.3807 13.5 16 13.5ZM12.5 16C12.5 14.067 14.067 12.5 16 12.5C17.933 12.5 19.5 14.067 19.5 16C19.5 17.933 17.933 19.5 16 19.5C14.067 19.5 12.5 17.933 12.5 16Z" fill="#47495F"/>
</svg>